<?xml version="1.0" encoding="UTF-8" standalone="no"?>
<!DOCTYPE svg PUBLIC "-//W3C//DTD SVG 1.1//EN"
 "http://www.w3.org/Graphics/SVG/1.1/DTD/svg11.dtd">
<!-- Generated by graphviz version 2.40.1 (20161225.0304)
 -->
<!-- Title: main Pages: 1 -->
<svg width="415pt" height="540pt"
 viewBox="0.00 0.00 415.45 540.00" xmlns="http://www.w3.org/2000/svg" xmlns:xlink="http://www.w3.org/1999/xlink">
<g id="graph0" class="graph" transform="scale(.871 .871) rotate(0) translate(4 616)">
<title>main</title>
<polygon fill="#ffffff" stroke="transparent" points="-4,4 -4,-616 473,-616 473,4 -4,4"/>
<!-- 2003 -->
<g id="node1" class="node">
<title>2003</title>
<text text-anchor="middle" x="27" y="-590.2" font-family="Times,serif" font-size="16.00" fill="#000000">2003</text>
</g>
<!-- 2006 -->
<g id="node2" class="node">
<title>2006</title>
<text text-anchor="middle" x="27" y="-518.2" font-family="Times,serif" font-size="16.00" fill="#000000">2006</text>
</g>
<!-- 2003&#45;&gt;2006 -->
<g id="edge1" class="edge">
<title>2003&#45;&gt;2006</title>
<path fill="none" stroke="#000000" d="M27,-575.8314C27,-565 27,-551.2876 27,-540.4133"/>
</g>
<!-- 2008 -->
<g id="node3" class="node">
<title>2008</title>
<text text-anchor="middle" x="27" y="-446.2" font-family="Times,serif" font-size="16.00" fill="#000000">2008</text>
</g>
<!-- 2006&#45;&gt;2008 -->
<g id="edge2" class="edge">
<title>2006&#45;&gt;2008</title>
<path fill="none" stroke="#000000" d="M27,-503.8314C27,-493 27,-479.2876 27,-468.4133"/>
</g>
<!-- 2010 -->
<g id="node4" class="node">
<title>2010</title>
<text text-anchor="middle" x="27" y="-374.2" font-family="Times,serif" font-size="16.00" fill="#000000">2010</text>
</g>
<!-- 2008&#45;&gt;2010 -->
<g id="edge3" class="edge">
<title>2008&#45;&gt;2010</title>
<path fill="none" stroke="#000000" d="M27,-431.8314C27,-421 27,-407.2876 27,-396.4133"/>
</g>
<!-- 2012 -->
<g id="node5" class="node">
<title>2012</title>
<text text-anchor="middle" x="27" y="-302.2" font-family="Times,serif" font-size="16.00" fill="#000000">2012</text>
</g>
<!-- 2010&#45;&gt;2012 -->
<g id="edge4" class="edge">
<title>2010&#45;&gt;2012</title>
<path fill="none" stroke="#000000" d="M27,-359.8314C27,-349 27,-335.2876 27,-324.4133"/>
</g>
<!-- 2015 -->
<g id="node6" class="node">
<title>2015</title>
<text text-anchor="middle" x="27" y="-230.2" font-family="Times,serif" font-size="16.00" fill="#000000">2015</text>
</g>
<!-- 2012&#45;&gt;2015 -->
<g id="edge5" class="edge">
<title>2012&#45;&gt;2015</title>
<path fill="none" stroke="#000000" d="M27,-287.8314C27,-277 27,-263.2876 27,-252.4133"/>
</g>
<!-- 2016 -->
<g id="node7" class="node">
<title>2016</title>
<text text-anchor="middle" x="27" y="-158.2" font-family="Times,serif" font-size="16.00" fill="#000000">2016</text>
</g>
<!-- 2015&#45;&gt;2016 -->
<g id="edge6" class="edge">
<title>2015&#45;&gt;2016</title>
<path fill="none" stroke="#000000" d="M27,-215.8314C27,-205 27,-191.2876 27,-180.4133"/>
</g>
<!-- 2017 -->
<g id="node8" class="node">
<title>2017</title>
<text text-anchor="middle" x="27" y="-86.2" font-family="Times,serif" font-size="16.00" fill="#000000">2017</text>
</g>
<!-- 2016&#45;&gt;2017 -->
<g id="edge7" class="edge">
<title>2016&#45;&gt;2017</title>
<path fill="none" stroke="#000000" d="M27,-143.8314C27,-133 27,-119.2876 27,-108.4133"/>
</g>
<!-- 2018 -->
<g id="node9" class="node">
<title>2018</title>
<text text-anchor="middle" x="27" y="-14.2" font-family="Times,serif" font-size="16.00" fill="#000000">2018</text>
</g>
<!-- 2017&#45;&gt;2018 -->
<g id="edge8" class="edge">
<title>2017&#45;&gt;2018</title>
<path fill="none" stroke="#000000" d="M27,-71.8314C27,-61 27,-47.2876 27,-36.4133"/>
</g>
<!-- PointGuard -->
<g id="node10" class="node">
<title>PointGuard</title>
<polygon fill="#8da0cb" stroke="#8da0cb" points="151.5,-612 72.5,-612 72.5,-576 151.5,-576 151.5,-612"/>
<text text-anchor="middle" x="112" y="-590.3" font-family="Times,serif" font-size="14.00" fill="#000000">PointGuard</text>
</g>
<!-- DieHard -->
<g id="node11" class="node">
<title>DieHard</title>
<polygon fill="#66c2a5" stroke="#66c2a5" points="256.5,-540 193.5,-540 193.5,-504 256.5,-504 256.5,-540"/>
<text text-anchor="middle" x="225" y="-518.3" font-family="Times,serif" font-size="14.00" fill="#000000">DieHard</text>
</g>
<!-- Exterminator -->
<g id="node12" class="node">
<title>Exterminator</title>
<polygon fill="#66c2a5" stroke="#66c2a5" points="177.5,-468 88.5,-468 88.5,-432 177.5,-432 177.5,-468"/>
<text text-anchor="middle" x="133" y="-446.3" font-family="Times,serif" font-size="14.00" fill="#000000">Exterminator</text>
</g>
<!-- DieHard&#45;&gt;Exterminator -->
<g id="edge10" class="edge">
<title>DieHard&#45;&gt;Exterminator</title>
<path fill="none" stroke="#000000" d="M201.7845,-503.8314C190.453,-494.9632 176.6536,-484.1637 164.3973,-474.5718"/>
<polygon fill="#000000" stroke="#000000" points="166.2402,-471.5697 156.2081,-468.1628 161.926,-477.0822 166.2402,-471.5697"/>
</g>
<!-- DieHarder -->
<g id="node14" class="node">
<title>DieHarder</title>
<polygon fill="#66c2a5" stroke="#66c2a5" points="216,-396 142,-396 142,-360 216,-360 216,-396"/>
<text text-anchor="middle" x="179" y="-374.3" font-family="Times,serif" font-size="14.00" fill="#000000">DieHarder</text>
</g>
<!-- DieHard&#45;&gt;DieHarder -->
<g id="edge9" class="edge">
<title>DieHard&#45;&gt;DieHarder</title>
<path fill="none" stroke="#000000" d="M219.1741,-503.7623C211.2935,-479.0928 197.1635,-434.8598 187.9358,-405.9731"/>
<polygon fill="#000000" stroke="#000000" points="191.1557,-404.5503 184.7786,-396.0896 184.4876,-406.6805 191.1557,-404.5503"/>
</g>
<!-- Undangle -->
<g id="node17" class="node">
<title>Undangle</title>
<polygon fill="#a6d854" stroke="#a6d854" points="341.5,-324 272.5,-324 272.5,-288 341.5,-288 341.5,-324"/>
<text text-anchor="middle" x="307" y="-302.3" font-family="Times,serif" font-size="14.00" fill="#000000">Undangle</text>
</g>
<!-- DieHard&#45;&gt;Undangle -->
<g id="edge15" class="edge">
<title>DieHard&#45;&gt;Undangle</title>
<path fill="none" stroke="#000000" d="M237.831,-503.6518C244.5141,-493.4915 252.4306,-480.4335 258,-468 278.2686,-422.7511 293.1061,-366.7702 300.8664,-333.8638"/>
<polygon fill="#000000" stroke="#000000" points="304.2966,-334.5645 303.1352,-324.0335 297.4759,-332.9902 304.2966,-334.5645"/>
</g>
<!-- MvArmor -->
<g id="node20" class="node">
<title>MvArmor</title>
<polygon fill="#fc8d62" stroke="#fc8d62" points="280.5,-180 207.5,-180 207.5,-144 280.5,-144 280.5,-180"/>
<text text-anchor="middle" x="244" y="-158.3" font-family="Times,serif" font-size="14.00" fill="#000000">MvArmor</text>
</g>
<!-- DieHard&#45;&gt;MvArmor -->
<g id="edge11" class="edge">
<title>DieHard&#45;&gt;MvArmor</title>
<path fill="none" stroke="#000000" d="M228.9368,-503.9156C234.502,-476.7281 244,-423.6422 244,-378 244,-378 244,-378 244,-306 244,-265.876 244,-219.4631 244,-190.4177"/>
<polygon fill="#000000" stroke="#000000" points="247.5001,-190.1853 244,-180.1854 240.5001,-190.1854 247.5001,-190.1853"/>
</g>
<!-- NOZZLE -->
<g id="node13" class="node">
<title>NOZZLE</title>
<polygon fill="#e78ac3" stroke="#e78ac3" points="392.5,-468 323.5,-468 323.5,-432 392.5,-432 392.5,-468"/>
<text text-anchor="middle" x="358" y="-446.3" font-family="Times,serif" font-size="14.00" fill="#000000">NOZZLE</text>
</g>
<!-- FreeGuard -->
<g id="node21" class="node">
<title>FreeGuard</title>
<polygon fill="#66c2a5" stroke="#66c2a5" points="216,-108 142,-108 142,-72 216,-72 216,-108"/>
<text text-anchor="middle" x="179" y="-86.3" font-family="Times,serif" font-size="14.00" fill="#000000">FreeGuard</text>
</g>
<!-- DieHarder&#45;&gt;FreeGuard -->
<g id="edge12" class="edge">
<title>DieHarder&#45;&gt;FreeGuard</title>
<path fill="none" stroke="#000000" d="M179,-359.9843C179,-311.2939 179,-176.7961 179,-118.0573"/>
<polygon fill="#000000" stroke="#000000" points="182.5001,-118.0088 179,-108.0089 175.5001,-118.0089 182.5001,-118.0088"/>
</g>
<!-- Cling -->
<g id="node15" class="node">
<title>Cling</title>
<polygon fill="#a6d854" stroke="#a6d854" points="397,-396 343,-396 343,-360 397,-360 397,-396"/>
<text text-anchor="middle" x="370" y="-374.3" font-family="Times,serif" font-size="14.00" fill="#000000">Cling</text>
</g>
<!-- Cling&#45;&gt;Undangle -->
<g id="edge16" class="edge">
<title>Cling&#45;&gt;Undangle</title>
<path fill="none" stroke="#000000" d="M354.1024,-359.8314C346.7722,-351.454 337.934,-341.3531 329.9031,-332.1749"/>
<polygon fill="#000000" stroke="#000000" points="332.3307,-329.6343 323.1116,-324.4133 327.0627,-334.2438 332.3307,-329.6343"/>
</g>
<!-- FreeSentry -->
<g id="node18" class="node">
<title>FreeSentry</title>
<polygon fill="#a6d854" stroke="#a6d854" points="349,-252 273,-252 273,-216 349,-216 349,-252"/>
<text text-anchor="middle" x="311" y="-230.3" font-family="Times,serif" font-size="14.00" fill="#000000">FreeSentry</text>
</g>
<!-- Cling&#45;&gt;FreeSentry -->
<g id="edge17" class="edge">
<title>Cling&#45;&gt;FreeSentry</title>
<path fill="none" stroke="#000000" d="M368.4508,-359.7034C366.3447,-340.9989 361.5496,-311.4467 351,-288 346.6198,-278.2648 340.2607,-268.5903 333.8969,-260.1767"/>
<polygon fill="#000000" stroke="#000000" points="336.5557,-257.8963 327.6047,-252.2278 331.0672,-262.2409 336.5557,-257.8963"/>
</g>
<!-- DangNULL -->
<g id="node19" class="node">
<title>DangNULL</title>
<polygon fill="#a6d854" stroke="#a6d854" points="449,-252 367,-252 367,-216 449,-216 449,-252"/>
<text text-anchor="middle" x="408" y="-230.3" font-family="Times,serif" font-size="14.00" fill="#000000">DangNULL</text>
</g>
<!-- Cling&#45;&gt;DangNULL -->
<g id="edge19" class="edge">
<title>Cling&#45;&gt;DangNULL</title>
<path fill="none" stroke="#000000" d="M374.8127,-359.7623C381.3227,-335.0928 392.9953,-290.8598 400.6182,-261.9731"/>
<polygon fill="#000000" stroke="#000000" points="404.0589,-262.6517 403.2264,-252.0896 397.2906,-260.8656 404.0589,-262.6517"/>
</g>
<!-- CETS -->
<g id="node16" class="node">
<title>CETS</title>
<polygon fill="#e78ac3" stroke="#e78ac3" points="469,-396 415,-396 415,-360 469,-360 469,-396"/>
<text text-anchor="middle" x="442" y="-374.3" font-family="Times,serif" font-size="14.00" fill="#000000">CETS</text>
</g>
<!-- Undangle&#45;&gt;FreeSentry -->
<g id="edge18" class="edge">
<title>Undangle&#45;&gt;FreeSentry</title>
<path fill="none" stroke="#000000" d="M308.0094,-287.8314C308.4372,-280.131 308.9459,-270.9743 309.4213,-262.4166"/>
<polygon fill="#000000" stroke="#000000" points="312.9169,-262.592 309.977,-252.4133 305.9276,-262.2037 312.9169,-262.592"/>
</g>
<!-- Guarder -->
<g id="node22" class="node">
<title>Guarder</title>
<polygon fill="#66c2a5" stroke="#66c2a5" points="171.5,-36 110.5,-36 110.5,0 171.5,0 171.5,-36"/>
<text text-anchor="middle" x="141" y="-14.3" font-family="Times,serif" font-size="14.00" fill="#000000">Guarder</text>
</g>
<!-- FreeGuard&#45;&gt;Guarder -->
<g id="edge13" class="edge">
<title>FreeGuard&#45;&gt;Guarder</title>
<path fill="none" stroke="#000000" d="M169.411,-71.8314C165.1683,-63.7925 160.0879,-54.1666 155.404,-45.2918"/>
<polygon fill="#000000" stroke="#000000" points="158.4811,-43.6235 150.7181,-36.4133 152.2904,-46.8908 158.4811,-43.6235"/>
</g>
<!-- HeapHopper -->
<g id="node23" class="node">
<title>HeapHopper</title>
<polygon fill="#66c2a5" stroke="#66c2a5" points="276,-36 190,-36 190,0 276,0 276,-36"/>
<text text-anchor="middle" x="233" y="-14.3" font-family="Times,serif" font-size="14.00" fill="#000000">HeapHopper</text>
</g>
<!-- FreeGuard&#45;&gt;HeapHopper -->
<g id="edge14" class="edge">
<title>FreeGuard&#45;&gt;HeapHopper</title>
<path fill="none" stroke="#000000" d="M192.6265,-71.8314C198.846,-63.5386 206.3322,-53.557 213.16,-44.4533"/>
<polygon fill="#000000" stroke="#000000" points="215.99,-46.5133 219.19,-36.4133 210.39,-42.3133 215.99,-46.5133"/>
</g>
<!-- Delta Pointers -->
<g id="node24" class="node">
<title>Delta Pointers</title>
<polygon fill="#8da0cb" stroke="#8da0cb" points="388,-36 294,-36 294,0 388,0 388,-36"/>
<text text-anchor="middle" x="341" y="-14.3" font-family="Times,serif" font-size="14.00" fill="#000000">Delta Pointers</text>
</g>
</g>
</svg>
